G04*
G04 #@! TF.GenerationSoftware,Altium Limited,Altium Designer,24.1.2 (44)*
G04*
G04 Layer_Color=128*
%FSLAX25Y25*%
%MOIN*%
G70*
G04*
G04 #@! TF.SameCoordinates,7DBD4A73-798C-42AE-A11E-901C6AB6527B*
G04*
G04*
G04 #@! TF.FilePolarity,Positive*
G04*
G01*
G75*
%ADD12C,0.00500*%
D12*
X70866Y86000D02*
X73347D01*
X72106Y84760D02*
Y87240D01*
X51653Y86000D02*
X54134D01*
X52894Y84760D02*
Y87240D01*
X12728Y74158D02*
X16272D01*
X14500Y72386D02*
Y75929D01*
X12728Y84000D02*
X16272D01*
X14500Y82228D02*
Y85772D01*
X12728Y93843D02*
X16272D01*
X14500Y92071D02*
Y95614D01*
X12728Y103685D02*
X16272D01*
X14500Y101913D02*
Y105457D01*
X12728Y113528D02*
X16272D01*
X14500Y111756D02*
Y115299D01*
X20209Y67858D02*
X24539D01*
X22374Y65693D02*
Y70024D01*
X181532Y137500D02*
X185468D01*
X183500Y135531D02*
Y139469D01*
X181532Y147500D02*
X185468D01*
X183500Y145531D02*
Y149469D01*
X181532Y157500D02*
X185468D01*
X183500Y155532D02*
Y159468D01*
X171531Y137500D02*
X175469D01*
X173500Y135531D02*
Y139469D01*
X171531Y147500D02*
X175469D01*
X173500Y145531D02*
Y149469D01*
X171531Y157500D02*
X175469D01*
X173500Y155532D02*
Y159468D01*
X132354Y37886D02*
X137866D01*
X135110Y35130D02*
Y40642D01*
X146134Y37886D02*
X151646D01*
X148890Y35130D02*
Y40642D01*
X53531Y36500D02*
X57468D01*
X55500Y34532D02*
Y38469D01*
X53531Y26500D02*
X57468D01*
X55500Y24532D02*
Y28468D01*
X53531Y16500D02*
X57468D01*
X55500Y14532D02*
Y18469D01*
X178138Y107866D02*
X187193D01*
X182665Y103339D02*
Y112394D01*
X178138Y56134D02*
X187193D01*
X182665Y51606D02*
Y60661D01*
X170185Y95780D02*
X173807D01*
X171996Y93969D02*
Y97591D01*
X170185Y85937D02*
X173807D01*
X171996Y84126D02*
Y87748D01*
X170185Y78063D02*
X173807D01*
X171996Y76252D02*
Y79874D01*
X170185Y68220D02*
X173807D01*
X171996Y66409D02*
Y70031D01*
X85728Y14000D02*
X89272D01*
X87500Y12228D02*
Y15772D01*
X85728Y23843D02*
X89272D01*
X87500Y22071D02*
Y25614D01*
X31827Y134142D02*
X35764D01*
X33795Y132173D02*
Y136110D01*
X6236Y134142D02*
X10173D01*
X8205Y132173D02*
Y136110D01*
X6236Y151858D02*
X10173D01*
X8205Y149890D02*
Y153827D01*
X31827Y151858D02*
X35764D01*
X33795Y149890D02*
Y153827D01*
X85228Y54343D02*
X88772D01*
X87000Y52571D02*
Y56114D01*
X85228Y44500D02*
X88772D01*
X87000Y42728D02*
Y46272D01*
X198594Y30500D02*
X210405D01*
X204500Y24595D02*
Y36406D01*
X6594Y51000D02*
X18406D01*
X12500Y45094D02*
Y56906D01*
X34130Y16110D02*
X39642D01*
X36886Y13354D02*
Y18866D01*
X34130Y29890D02*
X39642D01*
X36886Y27134D02*
Y32646D01*
X196595Y137000D02*
X208405D01*
X202500Y131095D02*
Y142905D01*
X139622Y87500D02*
X140803D01*
X140212Y86910D02*
Y88090D01*
X66909Y98000D02*
X68090D01*
X67500Y97409D02*
Y98590D01*
X41409Y102500D02*
X42591D01*
X42000Y101909D02*
Y103091D01*
X99910Y98000D02*
X101091D01*
X100500Y97409D02*
Y98590D01*
X86409Y102500D02*
X87590D01*
X87000Y101909D02*
Y103091D01*
X87410Y92000D02*
X88591D01*
X88000Y91409D02*
Y92590D01*
X46909Y119000D02*
X48091D01*
X47500Y118409D02*
Y119591D01*
X45409Y107000D02*
X46591D01*
X46000Y106409D02*
Y107591D01*
X66909Y128500D02*
X68090D01*
X67500Y127909D02*
Y129091D01*
X122409Y165000D02*
X123591D01*
X123000Y164409D02*
Y165591D01*
X102409Y61500D02*
X103591D01*
X103000Y60909D02*
Y62090D01*
X65409Y122500D02*
X66590D01*
X66000Y121909D02*
Y123091D01*
X134409Y146000D02*
X135591D01*
X135000Y145409D02*
Y146591D01*
X140409Y125000D02*
X141591D01*
X141000Y124409D02*
Y125591D01*
X140409Y120000D02*
X141591D01*
X141000Y119409D02*
Y120591D01*
X151909Y97000D02*
X153091D01*
X152500Y96409D02*
Y97591D01*
X72909Y102500D02*
X74090D01*
X73500Y101909D02*
Y103091D01*
X66909Y102500D02*
X68090D01*
X67500Y101909D02*
Y103091D01*
X43409Y121500D02*
X44591D01*
X44000Y120909D02*
Y122091D01*
M02*
