G04*
G04 #@! TF.GenerationSoftware,Altium Limited,Altium Designer,24.1.2 (44)*
G04*
G04 Layer_Physical_Order=1*
G04 Layer_Color=255*
%FSLAX25Y25*%
%MOIN*%
G70*
G04*
G04 #@! TF.SameCoordinates,7DBD4A73-798C-42AE-A11E-901C6AB6527B*
G04*
G04*
G04 #@! TF.FilePolarity,Positive*
G04*
G01*
G75*
%ADD17R,0.07316X0.05928*%
%ADD18O,0.02362X0.07677*%
%ADD19O,0.07677X0.02362*%
%ADD20R,0.05906X0.05906*%
%ADD21R,0.05928X0.07316*%
%ADD22R,0.03740X0.06693*%
%ADD23R,0.05333X0.07111*%
%ADD24R,0.06693X0.04331*%
%ADD25R,0.07087X0.05118*%
G04:AMPARAMS|DCode=26|XSize=51.58mil|YSize=24.41mil|CornerRadius=3.05mil|HoleSize=0mil|Usage=FLASHONLY|Rotation=180.000|XOffset=0mil|YOffset=0mil|HoleType=Round|Shape=RoundedRectangle|*
%AMROUNDEDRECTD26*
21,1,0.05158,0.01831,0,0,180.0*
21,1,0.04547,0.02441,0,0,180.0*
1,1,0.00610,-0.02274,0.00915*
1,1,0.00610,0.02274,0.00915*
1,1,0.00610,0.02274,-0.00915*
1,1,0.00610,-0.02274,-0.00915*
%
%ADD26ROUNDEDRECTD26*%
%ADD27R,0.05906X0.05906*%
%ADD28R,0.05118X0.07087*%
%ADD29R,0.01860X0.02029*%
%ADD30R,0.02029X0.01860*%
%ADD36R,0.05512X0.05512*%
%ADD37C,0.05512*%
%ADD38C,0.04331*%
%ADD39C,0.06102*%
%ADD40R,0.06102X0.06102*%
%ADD56C,0.01181*%
%ADD57C,0.03937*%
%ADD58C,0.04055*%
G04:AMPARAMS|DCode=59|XSize=82.68mil|YSize=82.68mil|CornerRadius=20.67mil|HoleSize=0mil|Usage=FLASHONLY|Rotation=0.000|XOffset=0mil|YOffset=0mil|HoleType=Round|Shape=RoundedRectangle|*
%AMROUNDEDRECTD59*
21,1,0.08268,0.04134,0,0,0.0*
21,1,0.04134,0.08268,0,0,0.0*
1,1,0.04134,0.02067,-0.02067*
1,1,0.04134,-0.02067,-0.02067*
1,1,0.04134,-0.02067,0.02067*
1,1,0.04134,0.02067,0.02067*
%
%ADD59ROUNDEDRECTD59*%
%ADD60C,0.08268*%
%ADD61R,0.06299X0.06299*%
%ADD62C,0.06299*%
%ADD63C,0.11024*%
%ADD64C,0.05709*%
%ADD65R,0.05709X0.05709*%
G04:AMPARAMS|DCode=66|XSize=55.12mil|YSize=55.12mil|CornerRadius=13.78mil|HoleSize=0mil|Usage=FLASHONLY|Rotation=270.000|XOffset=0mil|YOffset=0mil|HoleType=Round|Shape=RoundedRectangle|*
%AMROUNDEDRECTD66*
21,1,0.05512,0.02756,0,0,270.0*
21,1,0.02756,0.05512,0,0,270.0*
1,1,0.02756,-0.01378,-0.01378*
1,1,0.02756,-0.01378,0.01378*
1,1,0.02756,0.01378,0.01378*
1,1,0.02756,0.01378,-0.01378*
%
%ADD66ROUNDEDRECTD66*%
%ADD67C,0.05906*%
%ADD68C,0.15748*%
G04:AMPARAMS|DCode=69|XSize=82.68mil|YSize=82.68mil|CornerRadius=20.67mil|HoleSize=0mil|Usage=FLASHONLY|Rotation=270.000|XOffset=0mil|YOffset=0mil|HoleType=Round|Shape=RoundedRectangle|*
%AMROUNDEDRECTD69*
21,1,0.08268,0.04134,0,0,270.0*
21,1,0.04134,0.08268,0,0,270.0*
1,1,0.04134,-0.02067,-0.02067*
1,1,0.04134,-0.02067,0.02067*
1,1,0.04134,0.02067,0.02067*
1,1,0.04134,0.02067,-0.02067*
%
%ADD69ROUNDEDRECTD69*%
%ADD70C,0.02362*%
D17*
X100500Y123000D02*
D03*
Y111376D02*
D03*
X93500Y71188D02*
D03*
Y82812D02*
D03*
D18*
X60976Y110268D02*
D03*
X64126D02*
D03*
X67276D02*
D03*
X70425D02*
D03*
X73575D02*
D03*
X76724D02*
D03*
X79874D02*
D03*
X83024D02*
D03*
Y143732D02*
D03*
X79874D02*
D03*
X76724D02*
D03*
X73575D02*
D03*
X70425D02*
D03*
X67276D02*
D03*
X64126D02*
D03*
X60976D02*
D03*
D19*
X88732Y115976D02*
D03*
Y119126D02*
D03*
Y122276D02*
D03*
Y125425D02*
D03*
Y128575D02*
D03*
Y131724D02*
D03*
Y134874D02*
D03*
Y138024D02*
D03*
X55268D02*
D03*
Y134874D02*
D03*
Y131724D02*
D03*
Y128575D02*
D03*
Y125425D02*
D03*
Y122276D02*
D03*
Y119126D02*
D03*
Y115976D02*
D03*
D20*
X139610Y77000D02*
D03*
X153390D02*
D03*
X33795Y134142D02*
D03*
D21*
X116688Y90000D02*
D03*
X128312D02*
D03*
D22*
X49488Y101000D02*
D03*
X60512D02*
D03*
X81488Y156500D02*
D03*
X92512D02*
D03*
D23*
X73000Y69500D02*
D03*
X62167D02*
D03*
X40167D02*
D03*
X51000D02*
D03*
D24*
X33500Y100736D02*
D03*
Y90500D02*
D03*
D25*
X159500Y96807D02*
D03*
Y110193D02*
D03*
X145000Y96307D02*
D03*
Y109693D02*
D03*
Y145693D02*
D03*
Y132307D02*
D03*
D26*
X134327Y102000D02*
D03*
Y107000D02*
D03*
Y112000D02*
D03*
Y117000D02*
D03*
Y122000D02*
D03*
Y127000D02*
D03*
Y132000D02*
D03*
Y137000D02*
D03*
X112673D02*
D03*
Y132000D02*
D03*
Y127000D02*
D03*
Y122000D02*
D03*
Y117000D02*
D03*
Y112000D02*
D03*
Y107000D02*
D03*
Y102000D02*
D03*
D27*
X157500Y132500D02*
D03*
Y146280D02*
D03*
D28*
X153386Y55500D02*
D03*
X140000D02*
D03*
D29*
X93000Y95019D02*
D03*
Y98000D02*
D03*
D30*
X73000Y156500D02*
D03*
X70019D02*
D03*
D36*
X14500Y74158D02*
D03*
D37*
Y84000D02*
D03*
Y93843D02*
D03*
Y103685D02*
D03*
Y113528D02*
D03*
X87500Y23843D02*
D03*
X87000Y44500D02*
D03*
D38*
X22374Y67858D02*
D03*
D39*
X183500Y137500D02*
D03*
Y147500D02*
D03*
Y157500D02*
D03*
X173500Y137500D02*
D03*
Y147500D02*
D03*
D40*
Y157500D02*
D03*
D56*
X132968Y117000D02*
X134327D01*
X100500Y123000D02*
X108510D01*
X109821Y124311D01*
X125657D01*
X132968Y117000D01*
X99688Y71188D02*
X107000Y78500D01*
Y112685D02*
X111315Y117000D01*
X107000Y78500D02*
Y112685D01*
X139610Y77000D02*
X144091Y81480D01*
Y95398D01*
X145000Y96307D01*
X151487D01*
X65000Y100000D02*
X67500Y102500D01*
X61512Y100000D02*
X65000D01*
X60512Y101000D02*
X61512Y100000D01*
X67500Y98000D02*
X70425Y100925D01*
X33500Y100736D02*
X39917D01*
X41680Y102500D01*
X42000D01*
Y119500D01*
X49488Y101000D02*
X50540Y99948D01*
X93000Y98000D02*
X100500D01*
X87043Y102457D02*
X90543D01*
X87000Y102500D02*
X87043Y102457D01*
X93000Y83312D02*
Y95019D01*
X88000Y92000D02*
X90433Y89567D01*
X92806Y82812D02*
X93500D01*
X90433Y85185D02*
X92806Y82812D01*
X90433Y85185D02*
Y89567D01*
X42000Y119500D02*
X47925Y125425D01*
X73000Y69500D02*
Y70389D01*
X77500Y74889D01*
Y80606D01*
X72106Y86000D02*
X77500Y80606D01*
X73000Y69500D02*
X74500Y68000D01*
X52894Y71394D02*
Y86000D01*
X51000Y69500D02*
X52894Y71394D01*
Y86000D02*
X65377D01*
X79874Y100497D01*
Y110268D01*
X76724Y99724D02*
Y110268D01*
X71925Y99000D02*
X76000D01*
X76724Y99724D01*
X72106Y86000D02*
X83024Y96917D01*
Y110268D01*
X47500Y119000D02*
X47563Y119063D01*
X55205D02*
X55268Y119126D01*
X47563Y119063D02*
X55205D01*
X46000Y107000D02*
Y111500D01*
X50476Y115976D01*
X64500Y128500D02*
X67500D01*
X61425Y125425D02*
X64500Y128500D01*
X55268Y125425D02*
X61425D01*
X101732Y143732D02*
X123000Y165000D01*
X83024Y143732D02*
X101732D01*
X183500Y157500D02*
Y158500D01*
X178500Y163500D02*
X183500Y158500D01*
X127000Y163500D02*
X178500D01*
X101524Y138024D02*
X127000Y163500D01*
X88732Y138024D02*
X101524D01*
X128010Y157500D02*
X173500D01*
X105385Y134874D02*
X128010Y157500D01*
X88732Y134874D02*
X105385D01*
X55268Y122276D02*
X55380Y122388D01*
X65888D01*
X66000Y122500D01*
X135000Y146000D02*
X144693D01*
X140824Y125000D02*
X141000D01*
X138824Y127000D02*
X140824Y125000D01*
X134327Y127000D02*
X138824D01*
X140824Y120000D02*
X141000D01*
X134327Y122000D02*
X138824D01*
X140824Y120000D01*
X152180Y97000D02*
X152500D01*
X151487Y96307D02*
X152180Y97000D01*
X73500Y102500D02*
X73537Y102537D01*
Y110230D01*
X70425Y100500D02*
X71925Y99000D01*
X39584Y70084D02*
X40167Y69500D01*
X67388Y102612D02*
Y110156D01*
X67276Y110268D02*
X67388Y110156D01*
Y102612D02*
X67500Y102500D01*
X50476Y115976D02*
X55268D01*
X47925Y125425D02*
X55268D01*
X157500Y132500D02*
X159500Y130500D01*
Y110193D02*
Y130500D01*
X144693Y146000D02*
X145000Y145693D01*
X73000Y113820D02*
X73575Y113245D01*
X70425Y118075D02*
Y143732D01*
X73000Y113820D02*
Y115500D01*
X70425Y118075D02*
X73000Y115500D01*
X73575Y110268D02*
Y113245D01*
X70425Y100500D02*
Y100925D01*
Y110268D01*
X145000Y145693D02*
X145587Y146280D01*
X157500D01*
X145000Y118500D02*
Y132307D01*
X138677Y112177D02*
X145000Y118500D01*
X134327Y112000D02*
X134504Y112177D01*
X138677D01*
X157500Y110193D02*
X158000Y109693D01*
X92956Y98044D02*
Y100044D01*
Y98044D02*
X93000Y98000D01*
X90543Y102457D02*
X92956Y100044D01*
X111315Y117000D02*
X112673D01*
X93500Y71188D02*
X99688D01*
X51000Y69500D02*
Y70389D01*
X14157Y93843D02*
X14500D01*
X10500Y97500D02*
X14157Y93843D01*
X10500Y97500D02*
Y118308D01*
X11692Y119500D01*
X34000D01*
X43075Y128575D01*
X8000Y122500D02*
X11000Y125500D01*
X8000Y90500D02*
Y122500D01*
X11000Y125500D02*
X35000D01*
X8000Y90500D02*
X14500Y84000D01*
X35000Y125500D02*
X41224Y131724D01*
X91500Y151000D02*
X92512Y152012D01*
Y156500D01*
X82000Y151000D02*
X91500D01*
X79874Y148874D02*
X82000Y151000D01*
X79874Y143732D02*
Y148874D01*
X73575Y143732D02*
Y146709D01*
X73000Y147284D02*
Y156500D01*
Y147284D02*
X73575Y146709D01*
X70019Y156500D02*
X70222Y156297D01*
Y143935D02*
Y156297D01*
Y143935D02*
X70425Y143732D01*
X43075Y128575D02*
X55268D01*
X41224Y131724D02*
X55268D01*
X73537Y110230D02*
X73575Y110268D01*
X140000Y55500D02*
X141969Y57469D01*
Y61469D01*
X153390Y72890D01*
Y77000D01*
X134327Y112000D02*
X135685D01*
X134327Y107000D02*
X135685D01*
X138378Y109693D01*
X145000D01*
D57*
X100500Y98000D02*
Y111376D01*
X137712Y90000D02*
X140212Y87500D01*
X128312Y90000D02*
X137712D01*
X128312D02*
X128406Y89906D01*
X110500Y83118D02*
X116688Y89306D01*
Y90000D01*
X110500Y76500D02*
Y83118D01*
X103000Y61500D02*
Y69000D01*
X110500Y76500D01*
X116688Y90000D02*
Y90694D01*
X112673Y94015D02*
X114999Y91689D01*
X115692D01*
X116688Y90694D01*
X112673Y94015D02*
Y102000D01*
X134000Y100500D02*
X134327Y100827D01*
Y102000D01*
X134000Y96382D02*
Y100500D01*
X128312Y90694D02*
X134000Y96382D01*
X63000Y93500D02*
X67500Y98000D01*
X55709Y93500D02*
X63000D01*
X49488Y99721D02*
X55709Y93500D01*
X49488Y99721D02*
Y101000D01*
X48110Y99622D02*
X49390D01*
X46488Y98000D02*
X48110Y99622D01*
X42181Y98000D02*
X46488D01*
X43437Y161500D02*
X77768D01*
X33795Y151858D02*
X43437Y161500D01*
X77768D02*
X81488Y157780D01*
Y156500D02*
Y157780D01*
X19842Y79500D02*
X27000D01*
X32122Y84622D01*
Y90303D01*
X32319Y90500D02*
X34681D01*
X14500Y74158D02*
X19842Y79500D01*
X32122Y90303D02*
X32319Y90500D01*
X34681D02*
X42181Y98000D01*
X51694Y58138D02*
X62167Y68611D01*
Y69500D01*
X51694Y58000D02*
Y58138D01*
X44000Y58000D02*
X51694D01*
X40167Y68611D02*
Y69500D01*
Y61833D02*
Y68611D01*
Y61833D02*
X44000Y58000D01*
X30284Y23706D02*
Y58728D01*
X40167Y68611D01*
X36886Y16110D02*
Y17103D01*
X30284Y23706D02*
X36886Y17103D01*
X182665Y107866D02*
X191000Y116201D01*
Y130000D01*
X183500Y137500D02*
X191000Y130000D01*
X158000Y96307D02*
X159984D01*
X166500Y102823D01*
Y114500D01*
X173500Y121500D01*
Y137500D01*
X160000Y89000D02*
Y96216D01*
Y89000D02*
X162500Y86500D01*
Y72500D02*
Y86500D01*
X153386Y63386D02*
X162500Y72500D01*
X153386Y55500D02*
Y63386D01*
X127316Y89004D02*
X127500Y89188D01*
X55500Y16500D02*
X71000D01*
X74000Y13500D01*
X87000D01*
X87500Y14000D01*
X111386Y37886D01*
X135110D01*
Y37939D01*
X142000Y44829D01*
Y45000D01*
X150500D01*
X153386Y47886D01*
Y55500D01*
X182665Y56134D02*
Y85110D01*
X171996Y95780D02*
X182665Y85110D01*
X171996Y95780D02*
Y105560D01*
X174302Y107866D01*
X182665D01*
X87250Y24093D02*
X87500Y23843D01*
X87250Y24093D02*
Y44250D01*
X87000Y44500D02*
X87250Y44250D01*
X84416Y26500D02*
X87074Y23843D01*
X55500Y26500D02*
X84416D01*
X36886Y16110D02*
X46824Y26048D01*
X55048D01*
X55500Y26500D01*
X36886Y29890D02*
X43496Y36500D01*
X55500D01*
X73343Y54343D01*
X87000D01*
X148890Y37886D02*
X149661D01*
X157775Y46000D01*
X165500D01*
X171996Y52496D01*
Y68220D01*
D58*
X72106Y86000D02*
D03*
X52894D02*
D03*
D59*
X135110Y37886D02*
D03*
D60*
X148890D02*
D03*
X36886Y16110D02*
D03*
D61*
X55500Y36500D02*
D03*
D62*
Y26500D02*
D03*
Y16500D02*
D03*
D63*
X182665Y107866D02*
D03*
Y56134D02*
D03*
D64*
X171996Y95780D02*
D03*
Y85937D02*
D03*
Y78063D02*
D03*
D65*
Y68220D02*
D03*
D66*
X87500Y14000D02*
D03*
X87000Y54343D02*
D03*
D67*
X8205Y134142D02*
D03*
Y151858D02*
D03*
X33795D02*
D03*
D68*
X204500Y30500D02*
D03*
X12500Y51000D02*
D03*
X202500Y137000D02*
D03*
D69*
X36886Y29890D02*
D03*
D70*
X140212Y87500D02*
D03*
X67500Y98000D02*
D03*
X42000Y102500D02*
D03*
X100500Y98000D02*
D03*
X87000Y102500D02*
D03*
X88000Y92000D02*
D03*
X47500Y119000D02*
D03*
X46000Y107000D02*
D03*
X67500Y128500D02*
D03*
X123000Y165000D02*
D03*
X103000Y61500D02*
D03*
X66000Y122500D02*
D03*
X135000Y146000D02*
D03*
X141000Y125000D02*
D03*
Y120000D02*
D03*
X152500Y97000D02*
D03*
X73500Y102500D02*
D03*
X67500D02*
D03*
X44000Y121500D02*
D03*
M02*
