G04*
G04 #@! TF.GenerationSoftware,Altium Limited,Altium Designer,24.1.2 (44)*
G04*
G04 Layer_Color=65535*
%FSLAX25Y25*%
%MOIN*%
G70*
G04*
G04 #@! TF.SameCoordinates,7DBD4A73-798C-42AE-A11E-901C6AB6527B*
G04*
G04*
G04 #@! TF.FilePolarity,Positive*
G04*
G01*
G75*
%ADD10C,0.00984*%
%ADD11C,0.02362*%
%ADD12C,0.00500*%
%ADD13C,0.00787*%
%ADD14C,0.01968*%
%ADD15C,0.01800*%
%ADD16C,0.01000*%
D10*
X58122Y110268D02*
X57384Y110694D01*
Y109842D01*
X58122Y110268D01*
X14992Y62150D02*
X14254Y62576D01*
Y61724D01*
X14992Y62150D01*
X173992Y164862D02*
X173254Y165288D01*
Y164436D01*
X173992Y164862D01*
X55992Y49138D02*
X55254Y49564D01*
Y48712D01*
X55992Y49138D01*
X39406Y134142D02*
X38667Y134568D01*
Y133715D01*
X39406Y134142D01*
D11*
X65898Y119717D02*
X65453Y120640D01*
X64454Y120868D01*
X63652Y120229D01*
Y119204D01*
X64454Y118565D01*
X65453Y118793D01*
X65898Y119717D01*
D12*
X45167Y95173D02*
X44174Y95058D01*
X43222Y94751D01*
X42349Y94265D01*
X41588Y93617D01*
X40967Y92833D01*
X40511Y91944D01*
X40238Y90982D01*
X40157Y89986D01*
X84843D02*
X84762Y90982D01*
X84489Y91944D01*
X84033Y92833D01*
X83412Y93617D01*
X82651Y94265D01*
X81778Y94751D01*
X80826Y95058D01*
X79833Y95173D01*
Y76827D02*
X80826Y76942D01*
X81778Y77249D01*
X82651Y77735D01*
X83412Y78383D01*
X84033Y79167D01*
X84489Y80056D01*
X84762Y81018D01*
X84843Y82014D01*
X40157D02*
X40238Y81018D01*
X40511Y80056D01*
X40967Y79167D01*
X41588Y78383D01*
X42349Y77735D01*
X43222Y77249D01*
X44174Y76942D01*
X45167Y76827D01*
X40157Y82024D02*
Y89976D01*
X45158Y95173D02*
X79843D01*
X84842Y82024D02*
Y89976D01*
X45158Y76827D02*
X79843D01*
X116512Y99815D02*
X130488D01*
X116512Y139185D02*
X130488D01*
X116512Y99815D02*
X130488D01*
X116512Y139185D02*
X130488D01*
D13*
X134721Y96842D02*
X133933D01*
X134721D01*
X100886Y18921D02*
X100848Y19922D01*
X100736Y20916D01*
X100550Y21900D01*
X100291Y22867D01*
X99961Y23812D01*
X99560Y24729D01*
X99093Y25614D01*
X98560Y26462D01*
X97966Y27267D01*
X97312Y28026D01*
X96605Y28734D01*
X95846Y29387D01*
X95041Y29981D01*
X94193Y30514D01*
X93308Y30981D01*
X92390Y31382D01*
X91446Y31712D01*
X90479Y31971D01*
X89495Y32158D01*
X88500Y32270D01*
X87500Y32307D01*
X86500Y32270D01*
X85505Y32158D01*
X84521Y31971D01*
X83555Y31712D01*
X82610Y31382D01*
X81692Y30981D01*
X80807Y30514D01*
X79959Y29981D01*
X79154Y29387D01*
X78395Y28734D01*
X77688Y28026D01*
X77034Y27267D01*
X76440Y26462D01*
X75907Y25614D01*
X75440Y24729D01*
X75039Y23812D01*
X74709Y22867D01*
X74450Y21900D01*
X74264Y20916D01*
X74152Y19922D01*
X74114Y18921D01*
X74152Y17921D01*
X74264Y16926D01*
X74450Y15943D01*
X74709Y14976D01*
X75039Y14031D01*
X75440Y13113D01*
X75907Y12228D01*
X76440Y11381D01*
X77035Y10575D01*
X77688Y9817D01*
X78395Y9109D01*
X79154Y8456D01*
X79959Y7861D01*
X80807Y7329D01*
X81692Y6861D01*
X82610Y6461D01*
X83555Y6130D01*
X84521Y5871D01*
X85505Y5685D01*
X86500Y5573D01*
X87500Y5535D01*
X88500Y5573D01*
X89495Y5685D01*
X90479Y5871D01*
X91446Y6130D01*
X92390Y6461D01*
X93308Y6861D01*
X94193Y7329D01*
X95041Y7861D01*
X95846Y8456D01*
X96605Y9109D01*
X97312Y9817D01*
X97966Y10575D01*
X98560Y11381D01*
X99093Y12228D01*
X99560Y13113D01*
X99961Y14031D01*
X100291Y14976D01*
X100550Y15943D01*
X100736Y16926D01*
X100848Y17921D01*
X100886Y18921D01*
X100386Y49421D02*
X100348Y50422D01*
X100236Y51416D01*
X100050Y52400D01*
X99791Y53367D01*
X99461Y54312D01*
X99060Y55229D01*
X98593Y56114D01*
X98060Y56962D01*
X97465Y57767D01*
X96812Y58526D01*
X96105Y59234D01*
X95346Y59887D01*
X94541Y60481D01*
X93693Y61014D01*
X92808Y61481D01*
X91890Y61882D01*
X90946Y62212D01*
X89979Y62471D01*
X88995Y62658D01*
X88000Y62770D01*
X87000Y62807D01*
X86000Y62770D01*
X85005Y62658D01*
X84021Y62471D01*
X83055Y62212D01*
X82110Y61882D01*
X81192Y61481D01*
X80307Y61014D01*
X79460Y60481D01*
X78654Y59887D01*
X77895Y59234D01*
X77188Y58526D01*
X76534Y57767D01*
X75940Y56962D01*
X75407Y56114D01*
X74940Y55229D01*
X74540Y54312D01*
X74209Y53367D01*
X73950Y52400D01*
X73764Y51416D01*
X73652Y50422D01*
X73614Y49421D01*
X73652Y48421D01*
X73764Y47426D01*
X73950Y46443D01*
X74209Y45476D01*
X74540Y44531D01*
X74940Y43613D01*
X75407Y42728D01*
X75940Y41881D01*
X76535Y41075D01*
X77188Y40317D01*
X77895Y39609D01*
X78654Y38956D01*
X79460Y38361D01*
X80307Y37829D01*
X81192Y37361D01*
X82110Y36961D01*
X83055Y36630D01*
X84021Y36371D01*
X85005Y36185D01*
X86000Y36073D01*
X87000Y36035D01*
X88000Y36073D01*
X88995Y36185D01*
X89979Y36371D01*
X90946Y36630D01*
X91890Y36961D01*
X92808Y37361D01*
X93693Y37829D01*
X94541Y38361D01*
X95346Y38956D01*
X96105Y39609D01*
X96812Y40317D01*
X97465Y41075D01*
X98060Y41881D01*
X98593Y42728D01*
X99060Y43613D01*
X99461Y44531D01*
X99791Y45476D01*
X100050Y46443D01*
X100236Y47426D01*
X100348Y48421D01*
X100386Y49421D01*
X96842Y115521D02*
Y118855D01*
X104158Y115521D02*
Y118855D01*
X60780Y115780D02*
X83220D01*
X60780Y138220D02*
X83220D01*
X60780Y115780D02*
Y138220D01*
X83220Y115780D02*
Y138220D01*
X144138Y80346D02*
X148862D01*
X144138Y73654D02*
X148862D01*
X145220Y73949D02*
Y80051D01*
X120833Y86342D02*
X124167D01*
X120833Y93658D02*
X124167D01*
X52835Y104543D02*
X57165D01*
X52835Y97457D02*
X57165D01*
X66015Y73056D02*
X69152D01*
X66015Y65944D02*
X69152D01*
X36453Y94240D02*
Y96996D01*
X30547Y94240D02*
Y96996D01*
X27886Y64512D02*
Y123173D01*
X5248Y64512D02*
X18732D01*
X26016D02*
X27886D01*
X5248D02*
Y123173D01*
X27886D01*
X168500Y162500D02*
X188500D01*
X168500Y132500D02*
Y162500D01*
Y132500D02*
X188500D01*
Y162500D01*
X151252Y42610D02*
X158535D01*
X125465D02*
X129795D01*
X158535Y6390D02*
Y42610D01*
X125465Y6390D02*
X158535D01*
X125465D02*
Y42610D01*
X47468Y46579D02*
X65972D01*
X47468Y6421D02*
X65972D01*
X47468D02*
Y46579D01*
X65972Y6421D02*
Y46579D01*
X64004Y6421D02*
Y46579D01*
X156154Y100843D02*
Y106157D01*
X162846Y100843D02*
Y106157D01*
X141654Y100343D02*
Y105657D01*
X148346Y100343D02*
Y105657D01*
X154449Y140669D02*
X160551D01*
X154154Y137028D02*
Y141752D01*
X160846Y137028D02*
Y141752D01*
X148346Y136343D02*
Y141657D01*
X141654Y136343D02*
Y141657D01*
X168020Y99047D02*
Y107846D01*
X174532D01*
X168020Y56154D02*
Y63693D01*
Y56154D02*
X174532D01*
X189295Y107846D02*
X223138D01*
Y56154D02*
Y107846D01*
X189295Y56154D02*
X223138D01*
X144035Y52154D02*
X149350D01*
X144035Y58846D02*
X149350D01*
X44015Y65944D02*
X47152D01*
X44015Y73056D02*
X47152D01*
X95657Y94005D02*
Y99014D01*
X90343Y94005D02*
Y99014D01*
X97158Y75333D02*
Y78667D01*
X89842Y75333D02*
Y78667D01*
X69005Y159157D02*
X74014D01*
X69005Y153843D02*
X74014D01*
X11638Y131189D02*
X29268D01*
X9189Y138563D02*
Y147437D01*
X11638Y154811D02*
X30362D01*
X32811Y138669D02*
Y147437D01*
X5390Y39535D02*
X41610D01*
X5390Y6465D02*
Y39535D01*
Y6465D02*
X41610D01*
Y35205D02*
Y39535D01*
Y6465D02*
Y13748D01*
X84835Y160043D02*
X89165D01*
X84835Y152957D02*
X89165D01*
D14*
X165657Y68221D02*
X165165Y69073D01*
X164181D01*
X163689Y68221D01*
X164181Y67368D01*
X165165D01*
X165657Y68221D01*
D15*
X121500Y73999D02*
X120501Y74999D01*
X118501D01*
X117502Y73999D01*
Y70001D01*
X118501Y69001D01*
X120501D01*
X121500Y70001D01*
X123500Y73999D02*
X124499Y74999D01*
X126499D01*
X127498Y73999D01*
Y73000D01*
X126499Y72000D01*
X127498Y71000D01*
Y70001D01*
X126499Y69001D01*
X124499D01*
X123500Y70001D01*
Y71000D01*
X124499Y72000D01*
X123500Y73000D01*
Y73999D01*
X124499Y72000D02*
X126499D01*
X99500Y134999D02*
X98501Y135999D01*
X96501D01*
X95502Y134999D01*
Y131001D01*
X96501Y130001D01*
X98501D01*
X99500Y131001D01*
X101500D02*
X102499Y130001D01*
X104499D01*
X105498Y131001D01*
Y134999D01*
X104499Y135999D01*
X102499D01*
X101500Y134999D01*
Y134000D01*
X102499Y133000D01*
X105498D01*
X43001Y147999D02*
Y143001D01*
X44001Y142001D01*
X46000D01*
X47000Y143001D01*
Y147999D01*
X48999Y142001D02*
X50999D01*
X49999D01*
Y147999D01*
X48999Y146999D01*
X148168Y89499D02*
Y85501D01*
X150167D01*
X150833Y86167D01*
Y88833D01*
X150167Y89499D01*
X148168D01*
X154832Y85501D02*
X152166D01*
X154832Y88166D01*
Y88833D01*
X154166Y89499D01*
X152833D01*
X152166Y88833D01*
X49334Y93333D02*
X48667Y93999D01*
X47334D01*
X46668Y93333D01*
Y90667D01*
X47334Y90001D01*
X48667D01*
X49334Y90667D01*
X53332Y90001D02*
X50666D01*
X53332Y92666D01*
Y93333D01*
X52666Y93999D01*
X51333D01*
X50666Y93333D01*
X99834Y92833D02*
X99167Y93499D01*
X97834D01*
X97168Y92833D01*
Y90167D01*
X97834Y89501D01*
X99167D01*
X99834Y90167D01*
X103166Y89501D02*
Y93499D01*
X101166Y91500D01*
X103832D01*
X78167Y86499D02*
Y85833D01*
X79500Y84500D01*
X80833Y85833D01*
Y86499D01*
X79500Y84500D02*
Y82501D01*
X81334Y69333D02*
X80667Y69999D01*
X79334D01*
X78668Y69333D01*
Y66667D01*
X79334Y66001D01*
X80667D01*
X81334Y66667D01*
X82666Y69999D02*
X85332D01*
Y69333D01*
X82666Y66667D01*
Y66001D01*
X31334Y105501D02*
Y109499D01*
X33334D01*
X34000Y108833D01*
Y107500D01*
X33334Y106834D01*
X31334D01*
X32667D02*
X34000Y105501D01*
X35333D02*
X36666D01*
X35999D01*
Y109499D01*
X35333Y108833D01*
X26000Y58999D02*
X24667D01*
X25333D01*
Y55667D01*
X24667Y55001D01*
X24001D01*
X23334Y55667D01*
X27333Y55001D02*
X28666D01*
X27999D01*
Y58999D01*
X27333Y58333D01*
X81452Y8500D02*
Y4564D01*
X83420Y6532D02*
X79484D01*
X87548Y58500D02*
Y62436D01*
X85580Y60468D02*
X89516D01*
X119502Y148999D02*
Y144001D01*
X120501Y143001D01*
X122501D01*
X123500Y144001D01*
Y148999D01*
X129498Y143001D02*
X125500D01*
X129498Y147000D01*
Y147999D01*
X128499Y148999D01*
X126499D01*
X125500Y147999D01*
X142500Y116800D02*
Y122798D01*
X145499D01*
X146499Y121798D01*
Y119799D01*
X145499Y118799D01*
X142500D01*
X144499D02*
X146499Y116800D01*
X152497Y122798D02*
X148498D01*
Y119799D01*
X150497Y120799D01*
X151497D01*
X152497Y119799D01*
Y117800D01*
X151497Y116800D01*
X149498D01*
X148498Y117800D01*
X142500Y152800D02*
Y158798D01*
X145499D01*
X146499Y157798D01*
Y155799D01*
X145499Y154799D01*
X142500D01*
X144499D02*
X146499Y152800D01*
X151497D02*
Y158798D01*
X148498Y155799D01*
X152497D01*
X162002Y14501D02*
Y20499D01*
X165001D01*
X166000Y19499D01*
Y17500D01*
X165001Y16500D01*
X162002D01*
X171998Y14501D02*
X168000D01*
X171998Y18500D01*
Y19499D01*
X170999Y20499D01*
X168999D01*
X168000Y19499D01*
X184500Y126499D02*
X182501D01*
X183501D01*
Y121501D01*
X182501Y120501D01*
X181501D01*
X180502Y121501D01*
X190498Y120501D02*
X186500D01*
X190498Y124500D01*
Y125499D01*
X189499Y126499D01*
X187499D01*
X186500Y125499D01*
X10399Y164498D02*
X9399Y165498D01*
X7400D01*
X6400Y164498D01*
Y163499D01*
X7400Y162499D01*
X9399D01*
X10399Y161499D01*
Y160500D01*
X9399Y159500D01*
X7400D01*
X6400Y160500D01*
X12398Y165498D02*
Y159500D01*
X14397Y161499D01*
X16397Y159500D01*
Y165498D01*
X18396Y159500D02*
X20395D01*
X19396D01*
Y165498D01*
X18396Y164498D01*
X156334Y157889D02*
Y153891D01*
X158334D01*
X159000Y154557D01*
Y157223D01*
X158334Y157889D01*
X156334D01*
X160333Y153891D02*
X161666D01*
X160999D01*
Y157889D01*
X160333Y157223D01*
X123502Y52501D02*
Y58499D01*
X126501D01*
X127500Y57499D01*
Y55500D01*
X126501Y54500D01*
X123502D01*
X125501D02*
X127500Y52501D01*
X129500Y57499D02*
X130499Y58499D01*
X132499D01*
X133498Y57499D01*
Y56500D01*
X132499Y55500D01*
X131499D01*
X132499D01*
X133498Y54500D01*
Y53501D01*
X132499Y52501D01*
X130499D01*
X129500Y53501D01*
X157000Y117300D02*
Y123298D01*
X159999D01*
X160999Y122298D01*
Y120299D01*
X159999Y119299D01*
X157000D01*
X158999D02*
X160999Y117300D01*
X166997D02*
X162998D01*
X166997Y121299D01*
Y122298D01*
X165997Y123298D01*
X163998D01*
X162998Y122298D01*
X103667Y10167D02*
X103001Y9501D01*
Y8168D01*
X103667Y7502D01*
X106333D01*
X106999Y8168D01*
Y9501D01*
X106333Y10167D01*
X106999Y11500D02*
Y12833D01*
Y12167D01*
X103001D01*
X103667Y11500D01*
X106999Y17498D02*
Y14833D01*
X104333Y17498D01*
X103667D01*
X103001Y16832D01*
Y15499D01*
X103667Y14833D01*
X103167Y40334D02*
X102501Y39667D01*
Y38335D01*
X103167Y37668D01*
X105833D01*
X106499Y38335D01*
Y39667D01*
X105833Y40334D01*
X106499Y41667D02*
Y43000D01*
Y42333D01*
X102501D01*
X103167Y41667D01*
X106499Y44999D02*
Y46332D01*
Y45665D01*
X102501D01*
X103167Y44999D01*
X53168Y55999D02*
Y52667D01*
X53834Y52001D01*
X55167D01*
X55834Y52667D01*
Y55999D01*
X57166Y55333D02*
X57833Y55999D01*
X59166D01*
X59832Y55333D01*
Y54666D01*
X59166Y54000D01*
X58499D01*
X59166D01*
X59832Y53334D01*
Y52667D01*
X59166Y52001D01*
X57833D01*
X57166Y52667D01*
X32834Y43001D02*
Y46999D01*
X34834D01*
X35500Y46333D01*
Y45000D01*
X34834Y44334D01*
X32834D01*
X36833Y43001D02*
X38166D01*
X37499D01*
Y46999D01*
X36833Y46333D01*
X33834Y79333D02*
X33167Y79999D01*
X31834D01*
X31168Y79333D01*
Y76667D01*
X31834Y76001D01*
X33167D01*
X33834Y76667D01*
X37832Y79999D02*
X36499Y79333D01*
X35166Y78000D01*
Y76667D01*
X35833Y76001D01*
X37166D01*
X37832Y76667D01*
Y77334D01*
X37166Y78000D01*
X35166D01*
X60834Y157333D02*
X60167Y157999D01*
X58834D01*
X58168Y157333D01*
Y154667D01*
X58834Y154001D01*
X60167D01*
X60834Y154667D01*
X64832Y157999D02*
X62167D01*
Y156000D01*
X63499Y156667D01*
X64166D01*
X64832Y156000D01*
Y154667D01*
X64166Y154001D01*
X62833D01*
X62167Y154667D01*
X99834Y158333D02*
X99167Y158999D01*
X97834D01*
X97168Y158333D01*
Y155667D01*
X97834Y155001D01*
X99167D01*
X99834Y155667D01*
X101166Y158333D02*
X101833Y158999D01*
X103166D01*
X103832Y158333D01*
Y157667D01*
X103166Y157000D01*
X102499D01*
X103166D01*
X103832Y156333D01*
Y155667D01*
X103166Y155001D01*
X101833D01*
X101166Y155667D01*
X101500Y82333D02*
X100834Y82999D01*
X99501D01*
X98834Y82333D01*
Y79667D01*
X99501Y79001D01*
X100834D01*
X101500Y79667D01*
X102833Y79001D02*
X104166D01*
X103499D01*
Y82999D01*
X102833Y82333D01*
D16*
X194500Y154999D02*
X192501D01*
X193501D01*
Y150001D01*
X192501Y149001D01*
X191501D01*
X190502Y150001D01*
X196500Y153999D02*
X197499Y154999D01*
X199499D01*
X200498Y153999D01*
Y153000D01*
X199499Y152000D01*
X198499D01*
X199499D01*
X200498Y151000D01*
Y150001D01*
X199499Y149001D01*
X197499D01*
X196500Y150001D01*
M02*
