G04*
G04 #@! TF.GenerationSoftware,Altium Limited,Altium Designer,24.1.2 (44)*
G04*
G04 Layer_Color=8421504*
%FSLAX25Y25*%
%MOIN*%
G70*
G04*
G04 #@! TF.SameCoordinates,7DBD4A73-798C-42AE-A11E-901C6AB6527B*
G04*
G04*
G04 #@! TF.FilePolarity,Positive*
G04*
G01*
G75*
%ADD17R,0.07316X0.05928*%
%ADD18O,0.02362X0.07677*%
%ADD19O,0.07677X0.02362*%
%ADD20R,0.05906X0.05906*%
%ADD21R,0.05928X0.07316*%
%ADD22R,0.03740X0.06693*%
%ADD23R,0.05333X0.07111*%
%ADD24R,0.06693X0.04331*%
%ADD25R,0.07087X0.05118*%
G04:AMPARAMS|DCode=26|XSize=51.58mil|YSize=24.41mil|CornerRadius=3.05mil|HoleSize=0mil|Usage=FLASHONLY|Rotation=180.000|XOffset=0mil|YOffset=0mil|HoleType=Round|Shape=RoundedRectangle|*
%AMROUNDEDRECTD26*
21,1,0.05158,0.01831,0,0,180.0*
21,1,0.04547,0.02441,0,0,180.0*
1,1,0.00610,-0.02274,0.00915*
1,1,0.00610,0.02274,0.00915*
1,1,0.00610,0.02274,-0.00915*
1,1,0.00610,-0.02274,-0.00915*
%
%ADD26ROUNDEDRECTD26*%
%ADD27R,0.05906X0.05906*%
%ADD28R,0.05118X0.07087*%
%ADD29R,0.01860X0.02029*%
%ADD30R,0.02029X0.01860*%
D17*
X100500Y123000D02*
D03*
Y111376D02*
D03*
X93500Y71188D02*
D03*
Y82812D02*
D03*
D18*
X60976Y110268D02*
D03*
X64126D02*
D03*
X67276D02*
D03*
X70425D02*
D03*
X73575D02*
D03*
X76724D02*
D03*
X79874D02*
D03*
X83024D02*
D03*
Y143732D02*
D03*
X79874D02*
D03*
X76724D02*
D03*
X73575D02*
D03*
X70425D02*
D03*
X67276D02*
D03*
X64126D02*
D03*
X60976D02*
D03*
D19*
X88732Y115976D02*
D03*
Y119126D02*
D03*
Y122276D02*
D03*
Y125425D02*
D03*
Y128575D02*
D03*
Y131724D02*
D03*
Y134874D02*
D03*
Y138024D02*
D03*
X55268D02*
D03*
Y134874D02*
D03*
Y131724D02*
D03*
Y128575D02*
D03*
Y125425D02*
D03*
Y122276D02*
D03*
Y119126D02*
D03*
Y115976D02*
D03*
D20*
X139610Y77000D02*
D03*
X153390D02*
D03*
D21*
X116688Y90000D02*
D03*
X128312D02*
D03*
D22*
X49488Y101000D02*
D03*
X60512D02*
D03*
X81488Y156500D02*
D03*
X92512D02*
D03*
D23*
X73000Y69500D02*
D03*
X62167D02*
D03*
X40167D02*
D03*
X51000D02*
D03*
D24*
X33500Y100736D02*
D03*
Y90500D02*
D03*
D25*
X159500Y96807D02*
D03*
Y110193D02*
D03*
X145000Y96307D02*
D03*
Y109693D02*
D03*
Y145693D02*
D03*
Y132307D02*
D03*
D26*
X134327Y102000D02*
D03*
Y107000D02*
D03*
Y112000D02*
D03*
Y117000D02*
D03*
Y122000D02*
D03*
Y127000D02*
D03*
Y132000D02*
D03*
Y137000D02*
D03*
X112673D02*
D03*
Y132000D02*
D03*
Y127000D02*
D03*
Y122000D02*
D03*
Y117000D02*
D03*
Y112000D02*
D03*
Y107000D02*
D03*
Y102000D02*
D03*
D27*
X157500Y132500D02*
D03*
Y146280D02*
D03*
D28*
X153386Y55500D02*
D03*
X140000D02*
D03*
D29*
X93000Y95019D02*
D03*
Y98000D02*
D03*
D30*
X73000Y156500D02*
D03*
X70019D02*
D03*
M02*
