G04*
G04 #@! TF.GenerationSoftware,Altium Limited,Altium Designer,24.1.2 (44)*
G04*
G04 Layer_Color=8388736*
%FSLAX25Y25*%
%MOIN*%
G70*
G04*
G04 #@! TF.SameCoordinates,7DBD4A73-798C-42AE-A11E-901C6AB6527B*
G04*
G04*
G04 #@! TF.FilePolarity,Negative*
G04*
G01*
G75*
%ADD17R,0.07316X0.05928*%
%ADD20R,0.05906X0.05906*%
%ADD21R,0.05928X0.07316*%
%ADD22R,0.03740X0.06693*%
%ADD23R,0.05333X0.07111*%
%ADD25R,0.07087X0.05118*%
%ADD27R,0.05906X0.05906*%
%ADD28R,0.05118X0.07087*%
%ADD29R,0.01860X0.02029*%
%ADD30R,0.02029X0.01860*%
%ADD31O,0.02953X0.08268*%
%ADD32O,0.08268X0.02953*%
%ADD33R,0.07284X0.04921*%
G04:AMPARAMS|DCode=34|XSize=57.48mil|YSize=30.32mil|CornerRadius=6mil|HoleSize=0mil|Usage=FLASHONLY|Rotation=180.000|XOffset=0mil|YOffset=0mil|HoleType=Round|Shape=RoundedRectangle|*
%AMROUNDEDRECTD34*
21,1,0.05748,0.01831,0,0,180.0*
21,1,0.04547,0.03032,0,0,180.0*
1,1,0.01201,-0.02274,0.00915*
1,1,0.01201,0.02274,0.00915*
1,1,0.01201,0.02274,-0.00915*
1,1,0.01201,-0.02274,-0.00915*
%
%ADD34ROUNDEDRECTD34*%
%ADD35C,0.04646*%
%ADD36R,0.05512X0.05512*%
%ADD37C,0.05512*%
%ADD38C,0.04331*%
%ADD39C,0.06102*%
%ADD40R,0.06102X0.06102*%
G04:AMPARAMS|DCode=41|XSize=88.58mil|YSize=88.58mil|CornerRadius=23.62mil|HoleSize=0mil|Usage=FLASHONLY|Rotation=0.000|XOffset=0mil|YOffset=0mil|HoleType=Round|Shape=RoundedRectangle|*
%AMROUNDEDRECTD41*
21,1,0.08858,0.04134,0,0,0.0*
21,1,0.04134,0.08858,0,0,0.0*
1,1,0.04724,0.02067,-0.02067*
1,1,0.04724,-0.02067,-0.02067*
1,1,0.04724,-0.02067,0.02067*
1,1,0.04724,0.02067,0.02067*
%
%ADD41ROUNDEDRECTD41*%
%ADD42C,0.08858*%
%ADD43R,0.06890X0.06890*%
%ADD44C,0.06890*%
%ADD45C,0.11614*%
%ADD46C,0.06299*%
%ADD47R,0.06299X0.06299*%
G04:AMPARAMS|DCode=48|XSize=61.02mil|YSize=61.02mil|CornerRadius=16.73mil|HoleSize=0mil|Usage=FLASHONLY|Rotation=270.000|XOffset=0mil|YOffset=0mil|HoleType=Round|Shape=RoundedRectangle|*
%AMROUNDEDRECTD48*
21,1,0.06102,0.02756,0,0,270.0*
21,1,0.02756,0.06102,0,0,270.0*
1,1,0.03347,-0.01378,-0.01378*
1,1,0.03347,-0.01378,0.01378*
1,1,0.03347,0.01378,0.01378*
1,1,0.03347,0.01378,-0.01378*
%
%ADD48ROUNDEDRECTD48*%
%ADD49C,0.06102*%
%ADD50R,0.06496X0.06496*%
%ADD51C,0.06496*%
%ADD52C,0.06706*%
%ADD53C,0.16339*%
G04:AMPARAMS|DCode=54|XSize=88.58mil|YSize=88.58mil|CornerRadius=23.62mil|HoleSize=0mil|Usage=FLASHONLY|Rotation=270.000|XOffset=0mil|YOffset=0mil|HoleType=Round|Shape=RoundedRectangle|*
%AMROUNDEDRECTD54*
21,1,0.08858,0.04134,0,0,270.0*
21,1,0.04134,0.08858,0,0,270.0*
1,1,0.04724,-0.02067,-0.02067*
1,1,0.04724,-0.02067,0.02067*
1,1,0.04724,0.02067,0.02067*
1,1,0.04724,0.02067,-0.02067*
%
%ADD54ROUNDEDRECTD54*%
%ADD55C,0.02953*%
D17*
X100500Y123000D02*
D03*
Y111376D02*
D03*
X93500Y71188D02*
D03*
Y82812D02*
D03*
D20*
X139610Y77000D02*
D03*
X153390D02*
D03*
D21*
X116688Y90000D02*
D03*
X128312D02*
D03*
D22*
X49488Y101000D02*
D03*
X60512D02*
D03*
X81488Y156500D02*
D03*
X92512D02*
D03*
D23*
X73000Y69500D02*
D03*
X62167D02*
D03*
X40167D02*
D03*
X51000D02*
D03*
D25*
X159500Y96807D02*
D03*
Y110193D02*
D03*
X145000Y96307D02*
D03*
Y109693D02*
D03*
Y145693D02*
D03*
Y132307D02*
D03*
D27*
X157500Y132500D02*
D03*
Y146280D02*
D03*
D28*
X153386Y55500D02*
D03*
X140000D02*
D03*
D29*
X93000Y95019D02*
D03*
Y98000D02*
D03*
D30*
X73000Y156500D02*
D03*
X70019D02*
D03*
D31*
X60976Y110268D02*
D03*
X64126D02*
D03*
X67276D02*
D03*
X70425D02*
D03*
X73575D02*
D03*
X76724D02*
D03*
X79874D02*
D03*
X83024D02*
D03*
Y143732D02*
D03*
X79874D02*
D03*
X76724D02*
D03*
X73575D02*
D03*
X70425D02*
D03*
X67276D02*
D03*
X64126D02*
D03*
X60976D02*
D03*
D32*
X88732Y115976D02*
D03*
Y119126D02*
D03*
Y122276D02*
D03*
Y125425D02*
D03*
Y128575D02*
D03*
Y131724D02*
D03*
Y134874D02*
D03*
Y138024D02*
D03*
X55268D02*
D03*
Y134874D02*
D03*
Y131724D02*
D03*
Y128575D02*
D03*
Y125425D02*
D03*
Y122276D02*
D03*
Y119126D02*
D03*
Y115976D02*
D03*
D33*
X33500Y100736D02*
D03*
Y90500D02*
D03*
D34*
X134327Y102000D02*
D03*
Y107000D02*
D03*
Y112000D02*
D03*
Y117000D02*
D03*
Y122000D02*
D03*
Y127000D02*
D03*
Y132000D02*
D03*
Y137000D02*
D03*
X112673D02*
D03*
Y132000D02*
D03*
Y127000D02*
D03*
Y122000D02*
D03*
Y117000D02*
D03*
Y112000D02*
D03*
Y107000D02*
D03*
Y102000D02*
D03*
D35*
X72106Y86000D02*
D03*
X52894D02*
D03*
D36*
X14500Y74158D02*
D03*
D37*
Y84000D02*
D03*
Y93843D02*
D03*
Y103685D02*
D03*
Y113528D02*
D03*
D38*
X22374Y67858D02*
D03*
D39*
X183500Y137500D02*
D03*
Y147500D02*
D03*
Y157500D02*
D03*
X173500Y137500D02*
D03*
Y147500D02*
D03*
D40*
Y157500D02*
D03*
D41*
X135110Y37886D02*
D03*
D42*
X148890D02*
D03*
X36886Y16110D02*
D03*
D43*
X55500Y36500D02*
D03*
D44*
Y26500D02*
D03*
Y16500D02*
D03*
D45*
X182665Y107866D02*
D03*
Y56134D02*
D03*
D46*
X171996Y95780D02*
D03*
Y85937D02*
D03*
Y78063D02*
D03*
D47*
Y68220D02*
D03*
D48*
X87500Y14000D02*
D03*
X87000Y54343D02*
D03*
D49*
X87500Y23843D02*
D03*
X87000Y44500D02*
D03*
D50*
X33795Y134142D02*
D03*
D51*
X8205D02*
D03*
Y151858D02*
D03*
D52*
X33795D02*
D03*
D53*
X204500Y30500D02*
D03*
X12500Y51000D02*
D03*
X202500Y137000D02*
D03*
D54*
X36886Y29890D02*
D03*
D55*
X140212Y87500D02*
D03*
X67500Y98000D02*
D03*
X42000Y102500D02*
D03*
X100500Y98000D02*
D03*
X87000Y102500D02*
D03*
X88000Y92000D02*
D03*
X47500Y119000D02*
D03*
X46000Y107000D02*
D03*
X67500Y128500D02*
D03*
X123000Y165000D02*
D03*
X103000Y61500D02*
D03*
X66000Y122500D02*
D03*
X135000Y146000D02*
D03*
X141000Y125000D02*
D03*
Y120000D02*
D03*
X152500Y97000D02*
D03*
X73500Y102500D02*
D03*
X67500D02*
D03*
X44000Y121500D02*
D03*
M02*
