M48
;Layer_Color=9474304
;FILE_FORMAT=2:4
INCH,TZ
;TYPE=PLATED
T01F00S00C0.0118
T02F00S00C0.0248
T03F00S00C0.0354
T04F00S00C0.0362
T05F00S00C0.0394
T06F00S00C0.0551
T07F00S00C0.0906
T08F00S00C0.1181
;TYPE=NON_PLATED
T09F00S00C0.0433
%
T01
X4200Y10250
X4600Y10700
X4750Y11900
X4400Y12150
X6600Y12250
X6750Y12850
Y10250
Y9800
X7350Y10250
X8700
X8800Y9200
X10050Y9800
X10300Y6150
X14021Y8750
X15250Y9700
X14100Y12000
Y12500
X13500Y14600
X12300Y16500
T02
X5289Y8600
X7211
T03
X8750Y1400
Y2384
X8700Y4450
Y5434
X1450Y7416
Y8400
Y9384
Y10368
Y11353
T04
X17200Y6822
Y7806
Y8594
Y9578
T05
X5550Y1650
Y2650
Y3650
X3380Y13414
Y15186
X17350Y14750
X18350
Y13750
X17350
Y15750
X18350
X820Y15186
Y13414
T06
X3689Y1611
Y2989
X13511Y3789
X14889
T07
X18267Y5613
Y10787
T08
X20450Y3050
X20250Y13700
X1250Y5100
T09
X2237Y6786
M30
